<?xml version="1.0" encoding="UTF-8" standalone="no"?>
<svg
   id="Layer_1"
   data-name="Layer 1"
   viewBox="0 0 107.86 122.88"
   width="32"
   height="32"
   version="1.1"
   sodipodi:docname="address-icon.svg"
   inkscape:version="1.3.2 (091e20e, 2023-11-25, custom)"
   xmlns:inkscape="http://www.inkscape.org/namespaces/inkscape"
   xmlns:sodipodi="http://sodipodi.sourceforge.net/DTD/sodipodi-0.dtd"
   xmlns="http://www.w3.org/2000/svg"
   xmlns:svg="http://www.w3.org/2000/svg">
  <sodipodi:namedview
     id="namedview1"
     pagecolor="#ffffff"
     bordercolor="#000000"
     borderopacity="0.25"
     inkscape:showpageshadow="2"
     inkscape:pageopacity="0.0"
     inkscape:pagecheckerboard="0"
     inkscape:deskcolor="#d1d1d1"
     showgrid="false"
     inkscape:zoom="4.4677735"
     inkscape:cx="53.829944"
     inkscape:cy="61.439999"
     inkscape:window-width="1366"
     inkscape:window-height="745"
     inkscape:window-x="-8"
     inkscape:window-y="-8"
     inkscape:window-maximized="1"
     inkscape:current-layer="Layer_1" />
  <defs
     id="defs1">
    <style
       id="style1">.cls-1{fill-rule:evenodd;}</style>
  </defs>
  <title
     id="title1">gps</title>
  <path
     class="cls-1"
     d="M86.07,81.78c13.22,4.16,21.79,10.81,21.79,18.31,0,12.59-24.14,22.79-53.93,22.79S0,112.68,0,100.09c0-7.68,9-14.47,22.73-18.6.5.76,1,1.52,1.51,2.26q1.61,2.34,3.33,4.6c-9.62,2.58-15.79,6.56-15.79,11,0,7.78,18.67,14.09,41.71,14.09s41.7-6.31,41.7-14.09c0-4.16-5.34-7.9-13.84-10.48,1.67-2.29,3.24-4.67,4.72-7.12ZM71.65,84.49A70.47,70.47,0,0,1,56.22,97.26a2.17,2.17,0,0,1-2.48.08A87,87,0,0,1,32.27,78.19C24.45,68.38,19.53,57.5,17.84,47,16.13,36.4,17.73,26.18,23,17.87A35.87,35.87,0,0,1,31,9C38.47,3.08,47-.06,55.47,0A34.42,34.42,0,0,1,78.68,9.48,34.33,34.33,0,0,1,84.88,17c5.68,9.37,6.91,21.31,4.41,33.41a73.54,73.54,0,0,1-17.64,34v0Zm-17.8-65.6A18.25,18.25,0,1,1,35.6,37.14,18.24,18.24,0,0,1,53.85,18.89Z"
     id="path1"
     style="fill:#a9ce4d;fill-opacity:1" />
</svg>
