<svg width="380" height="133" viewBox="0 0 288 48" fill="none" xmlns="http://www.w3.org/2000/svg">
<path d="M184.505 45.6612L183.708 45.0531C183.345 44.7772 182.956 44.4387 182.479 44.0312C181.99 43.6111 181.395 43.097 180.655 42.5014C179.771 43.3603 177.708 45.0907 174.235 45.0907C169.351 45.0907 167.533 41.3227 167.533 38.9465C167.533 36.4324 168.843 34.213 171.238 32.6393C170.505 31.492 170.191 30.4638 170.191 29.26C170.191 26.8023 172.649 24.0625 176.178 24.0625C176.749 24.0625 177.307 24.1127 177.834 24.2067L178.241 24.2819V26.8838L177.445 26.2882C177.044 25.9873 176.467 25.9246 175.664 25.9246C174.398 25.9246 172.918 26.6707 172.918 28.771C172.918 30.539 174.166 32.0876 176.824 34.9716C177.552 35.7678 180.091 38.1565 181.238 39.1785C181.984 38.2945 182.981 36.8587 183.238 35.3039L183.301 34.9152L184.95 34.8148L184.862 35.4167C184.611 37.1471 183.595 38.9841 182.636 40.2694C183.213 40.7459 183.771 41.1722 184.298 41.5421L184.511 41.6926V45.6612H184.505ZM172.197 34.144C171.075 35.028 170.511 36.2318 170.511 37.7428C170.511 40.5892 172.492 42.7396 175.125 42.7396C177.131 42.7396 178.448 41.9873 179.2 41.3603C177.74 40.1064 175.595 38.0437 174.962 37.3666C174.762 37.1471 173.144 35.3979 172.197 34.144Z" fill="#231F20"/>
<mask id="mask0_56_205" style="mask-type:luminance" maskUnits="userSpaceOnUse" x="1" y="0" width="49" height="48">
<path d="M6.62383 39.4232C11.0251 44.6646 17.627 48 25.0125 48C31.6709 48 37.7022 45.2853 42.047 40.9091C41.0188 41.1034 40.0157 41.2038 39.0878 41.2038C29.9906 41.2038 20.4107 35.9122 14.5172 28.1505L6.6301 39.4232H6.62383ZM16.7116 25.0094C21.884 31.3417 30.0157 36.1254 37.9404 36.1254C40.0533 36.1254 41.8715 35.7367 43.3887 35.0031L31.1066 4.43261L16.7116 25.0094ZM1.00628 24C1.00628 29.0031 2.53606 33.6426 5.15048 37.4922L13.0941 26.1379C10.3981 21.9436 8.76803 17.1661 8.76803 12.1818C8.76803 7.68025 11.3448 4.13793 12.7241 3.37931C5.7022 7.5674 1 15.2351 1 24.0063M46.4796 32.5517C48.1536 30.464 49.0063 27.5298 49.0063 23.9185C48.9687 13.1034 41.7712 3.96865 31.9091 1.0094L46.4796 32.5455V32.5517ZM11.2508 11.6552C11.2508 15.4734 12.7555 19.4545 15.2508 23.0721L30.8934 0.727275C29.0126 0.250786 27.0439 0 25.0125 0C14.4608 0 11.2571 6.21944 11.2571 11.6489" fill="white"/>
</mask>
<g mask="url(#mask0_56_205)">
<path d="M41.4459 -17.5078L-16.4849 7.56104L8.58401 65.4918L66.5148 40.4229L41.4459 -17.5078Z" fill="url(#paint0_linear_56_205)"/>
</g>
<path d="M73.2189 38.6209H63.3757L61.0371 44.7087H57.0371L66.2409 20.3137H70.3161L79.5199 44.7087H75.5512L73.2127 38.6209H73.2189ZM64.6484 35.2542H71.9399L68.291 25.0222L64.6421 35.2542H64.6484Z" fill="#211E1F"/>
<path d="M87.3824 20.3137H83.627V44.7087H87.3824V20.3137Z" fill="#211E1F"/>
<path d="M114.504 40.5707C112.379 43.3356 108.981 45.066 105.012 45.066C98.1093 45.066 92.6924 39.4735 92.6924 32.5644C92.6924 25.6553 98.1093 20.0315 105.012 20.0315C108.906 20.0315 112.272 21.7306 114.429 24.4202L111.526 26.6898C109.934 24.8842 107.664 23.6428 105.012 23.6428C100.159 23.6428 96.4416 27.6428 96.4416 32.5644C96.4416 37.486 100.159 41.4547 105.012 41.4547C107.702 41.4547 110.078 40.2133 111.601 38.2697L114.504 40.5707Z" fill="#211E1F"/>
<path d="M119.401 20.3137H129.207C134.486 20.3137 136.643 24.1758 136.643 28.0692C136.643 31.9626 134.479 35.7557 129.207 35.7557H123.188V44.715H119.401V20.32V20.3137ZM123.188 23.7808V32.3137H128.994C131.721 32.3137 132.887 30.1507 132.887 28.0629C132.887 25.9752 131.752 23.7808 129.132 23.7808H123.182H123.188Z" fill="#211E1F"/>
<path d="M153.075 38.6209H143.232L140.893 44.7087H136.893L146.103 20.3137H150.172L159.376 44.7087H155.413L153.075 38.6209ZM144.504 35.2542H151.796L148.147 25.0222L144.498 35.2542H144.504Z" fill="#211E1F"/>
<path d="M213.232 40.5956C211.113 43.3542 207.715 45.0846 203.759 45.0846C196.868 45.0846 191.458 39.4984 191.458 32.6081C191.458 25.7178 196.868 20.094 203.759 20.094C207.646 20.094 211.006 21.793 213.163 24.4764L210.267 26.7398C208.674 24.9341 206.411 23.699 203.765 23.699C198.925 23.699 195.213 27.6927 195.213 32.6081C195.213 37.5235 198.925 41.4796 203.765 41.4796C206.455 41.4796 208.818 40.2445 210.342 38.3009L213.238 40.5956H213.232Z" fill="#211E1F"/>
<path d="M221.739 20.3757H217.99V44.7331H221.739V20.3757Z" fill="#211E1F"/>
<path d="M250.968 20.3757H254.329L257.294 44.7268H253.551L251.464 27.335L244.323 42.0058H241.144L233.965 27.335L231.884 44.7268H228.135L231.106 20.3757H234.429L242.699 37.73L250.968 20.3757Z" fill="#211E1F"/>
<path d="M276.178 38.6519H266.348L264.015 44.7334H260.015L269.213 20.3635H273.282L282.479 44.7334H278.517L276.185 38.6519H276.178ZM267.62 35.2914H274.906L271.263 25.072L267.62 35.2914Z" fill="#211E1F"/>
<path d="M43.7396 43.3415C43.7396 42.9214 43.8336 42.5327 44.028 42.1753C44.2223 41.818 44.4919 41.5358 44.8305 41.329C45.1753 41.1221 45.5452 41.0217 45.9402 41.0217C46.3352 41.0217 46.7114 41.1283 47.0499 41.329C47.3948 41.5358 47.6581 41.818 47.8524 42.1753C48.0468 42.5327 48.1408 42.9214 48.1408 43.3415C48.1408 43.7615 48.0405 44.1565 47.8462 44.5139C47.6518 44.8713 47.3822 45.1534 47.0374 45.3603C46.6988 45.5672 46.3289 45.6675 45.9339 45.6675C45.539 45.6675 45.1628 45.5609 44.8242 45.354C44.4857 45.1471 44.2161 44.865 44.0217 44.5076C43.8274 44.1503 43.7271 43.7615 43.7271 43.3415M44.1032 43.3415C44.1032 43.68 44.1785 43.9998 44.3352 44.3007C44.4919 44.5954 44.7114 44.8336 44.9935 45.0155C45.2756 45.1973 45.5891 45.2851 45.9339 45.2851C46.2788 45.2851 46.586 45.1973 46.8681 45.0155C47.1502 44.8399 47.3697 44.6017 47.5264 44.3007C47.6832 44.0061 47.7584 43.6863 47.7584 43.3415C47.7584 42.9967 47.6832 42.6769 47.5264 42.3822C47.3697 42.0876 47.1502 41.8493 46.8681 41.6738C46.586 41.4982 46.2725 41.4104 45.9339 41.4104C45.5954 41.4104 45.3007 41.4982 45.0186 41.6675C44.7365 41.8368 44.5107 42.0687 44.354 42.3697C44.191 42.6706 44.1095 42.9967 44.1095 43.3478M45.4888 43.586V44.633H45.0186V41.9873H45.8901C46.2098 41.9873 46.4543 42.0625 46.6361 42.2067C46.8117 42.3509 46.9057 42.5515 46.9057 42.8086C46.9057 43.0343 46.7929 43.2098 46.5734 43.3352C46.6926 43.4042 46.7741 43.4919 46.8242 43.6048C46.8744 43.7239 46.8932 43.8681 46.8932 44.0374C46.8932 44.2067 46.8932 44.3321 46.9057 44.401C46.912 44.47 46.9245 44.5327 46.9496 44.5766V44.6267H46.4669C46.4418 44.5578 46.423 44.3572 46.423 44.0249C46.423 43.8681 46.3854 43.7553 46.3227 43.6863C46.2537 43.6173 46.1408 43.5797 45.9841 43.5797H45.4951L45.4888 43.586ZM45.4888 43.1722H45.8838C46.0405 43.1722 46.1722 43.1409 46.2788 43.0719C46.3854 43.0092 46.4355 42.9214 46.4355 42.8086C46.4355 42.6644 46.3979 42.5641 46.3227 42.5014C46.2474 42.4387 46.1158 42.4073 45.9214 42.4073H45.4825V43.1722H45.4888Z" fill="#231F20"/>
<path d="M155.727 23.3732C155.727 22.9907 155.815 22.6334 155.99 22.3074C156.166 21.9813 156.411 21.7243 156.724 21.5299C157.037 21.3418 157.376 21.2478 157.74 21.2478C158.103 21.2478 158.442 21.3418 158.755 21.5299C159.069 21.718 159.313 21.9751 159.489 22.3074C159.664 22.6334 159.752 22.9907 159.752 23.3732C159.752 23.7556 159.664 24.1193 159.483 24.4453C159.301 24.7713 159.056 25.0346 158.743 25.2165C158.429 25.4045 158.097 25.4986 157.733 25.4986C157.37 25.4986 157.031 25.4045 156.718 25.2165C156.404 25.0284 156.16 24.7713 155.984 24.439C155.809 24.113 155.715 23.7556 155.715 23.3732M156.059 23.3732C156.059 23.6867 156.128 23.9751 156.273 24.2509C156.411 24.5205 156.611 24.74 156.874 24.903C157.132 25.066 157.42 25.1475 157.733 25.1475C158.047 25.1475 158.329 25.066 158.586 24.903C158.843 24.74 159.044 24.5268 159.188 24.2509C159.332 23.9813 159.401 23.6867 159.401 23.3732C159.401 23.0597 159.332 22.765 159.188 22.4955C159.044 22.2259 158.843 22.0127 158.586 21.8497C158.329 21.6867 158.041 21.6052 157.733 21.6052C157.426 21.6052 157.15 21.6804 156.893 21.8371C156.636 21.9939 156.429 22.2071 156.285 22.4766C156.141 22.7462 156.066 23.0472 156.066 23.3669M157.326 23.5801V24.5393H156.9V22.1255H157.696C157.984 22.1255 158.216 22.1945 158.373 22.3262C158.536 22.4578 158.617 22.6459 158.617 22.8779C158.617 23.0848 158.517 23.2478 158.316 23.3607C158.423 23.4233 158.505 23.5049 158.548 23.6114C158.592 23.718 158.611 23.8497 158.611 24.0064C158.611 24.1632 158.611 24.276 158.624 24.3387C158.63 24.4014 158.642 24.4578 158.661 24.5017V24.5456H158.222C158.197 24.4829 158.185 24.2948 158.185 23.9939C158.185 23.8497 158.153 23.7494 158.091 23.6804C158.028 23.6177 157.921 23.5864 157.777 23.5864H157.326V23.5801ZM157.326 23.1976H157.69C157.834 23.1976 157.953 23.1663 158.047 23.1099C158.141 23.0472 158.191 22.9719 158.191 22.8716C158.191 22.74 158.16 22.6459 158.091 22.5895C158.022 22.5331 157.903 22.5017 157.727 22.5017H157.326V23.1976Z" fill="#231F20"/>
<path d="M279.953 23.3732C279.953 22.9907 280.041 22.6334 280.216 22.3074C280.392 21.9813 280.636 21.7243 280.95 21.5299C281.263 21.3418 281.602 21.2478 281.966 21.2478C282.329 21.2478 282.668 21.3418 282.981 21.5299C283.295 21.718 283.539 21.9751 283.715 22.3074C283.89 22.6334 283.978 22.9907 283.978 23.3732C283.978 23.7556 283.89 24.1193 283.709 24.4453C283.527 24.7713 283.282 25.0346 282.969 25.2165C282.655 25.4045 282.323 25.4986 281.959 25.4986C281.596 25.4986 281.257 25.4045 280.944 25.2165C280.63 25.0284 280.386 24.7713 280.21 24.439C280.035 24.113 279.947 23.7556 279.947 23.3732M280.292 23.3732C280.292 23.6867 280.361 23.9751 280.505 24.2509C280.643 24.5205 280.843 24.74 281.107 24.903C281.364 25.066 281.652 25.1475 281.966 25.1475C282.279 25.1475 282.561 25.066 282.818 24.903C283.075 24.74 283.276 24.5268 283.42 24.2509C283.564 23.9813 283.633 23.6867 283.633 23.3732C283.633 23.0597 283.564 22.765 283.42 22.4955C283.276 22.2259 283.075 22.0127 282.818 21.8497C282.561 21.6867 282.273 21.6052 281.966 21.6052C281.658 21.6052 281.383 21.6804 281.125 21.8371C280.868 21.9939 280.662 22.2071 280.517 22.4766C280.367 22.7462 280.298 23.0472 280.298 23.3669M281.558 23.5801V24.5393H281.125V22.1255H281.922C282.21 22.1255 282.442 22.1945 282.599 22.3262C282.762 22.4578 282.843 22.6459 282.843 22.8779C282.843 23.0848 282.743 23.2478 282.536 23.3607C282.643 23.4233 282.724 23.5049 282.768 23.6114C282.812 23.718 282.831 23.8497 282.831 24.0064C282.831 24.1632 282.831 24.276 282.843 24.3387C282.85 24.4014 282.862 24.4578 282.881 24.5017V24.5456H282.442C282.417 24.4829 282.404 24.2948 282.404 23.9939C282.404 23.8497 282.373 23.7494 282.31 23.6804C282.248 23.6177 282.141 23.5864 281.997 23.5864H281.546L281.558 23.5801ZM281.558 23.1976H281.922C282.066 23.1976 282.185 23.1663 282.279 23.1099C282.373 23.0472 282.423 22.9719 282.423 22.8716C282.423 22.74 282.392 22.6459 282.323 22.5895C282.254 22.5331 282.135 22.5017 281.959 22.5017H281.558V23.1976Z" fill="#231F20"/>
<defs>
<linearGradient id="paint0_linear_56_205" x1="2.45023" y1="32.2947" x2="46.5197" y2="13.2241" gradientUnits="userSpaceOnUse">
<stop stop-color="#662E87"/>
<stop offset="0.2" stop-color="#6E3083"/>
<stop offset="0.53" stop-color="#873678"/>
<stop offset="0.94" stop-color="#AE4066"/>
<stop offset="1" stop-color="#B54264"/>
</linearGradient>
</defs>
</svg>
